<svg xmlns="http://www.w3.org/2000/svg" viewBox="0 0 260 260" role="img" aria-label="VyshyvankaDaily"><rect width="260" height="260" fill="#EDE6DC"/><g fill="#C23B2E"><rect x="22" y="22" width="16" height="16"/><rect x="122" y="22" width="16" height="16"/><rect x="222" y="22" width="16" height="16"/><rect x="42" y="42" width="16" height="16"/><rect x="122" y="42" width="16" height="16"/><rect x="202" y="42" width="16" height="16"/><rect x="62" y="62" width="16" height="16"/><rect x="122" y="62" width="16" height="16"/><rect x="182" y="62" width="16" height="16"/><rect x="82" y="82" width="16" height="16"/><rect x="122" y="82" width="16" height="16"/><rect x="162" y="82" width="16" height="16"/><rect x="22" y="122" width="16" height="16"/><rect x="42" y="122" width="16" height="16"/><rect x="62" y="122" width="16" height="16"/><rect x="82" y="122" width="16" height="16"/><rect x="162" y="122" width="16" height="16"/><rect x="182" y="122" width="16" height="16"/><rect x="202" y="122" width="16" height="16"/><rect x="222" y="122" width="16" height="16"/><rect x="82" y="162" width="16" height="16"/><rect x="122" y="162" width="16" height="16"/><rect x="162" y="162" width="16" height="16"/><rect x="62" y="182" width="16" height="16"/><rect x="122" y="182" width="16" height="16"/><rect x="182" y="182" width="16" height="16"/><rect x="42" y="202" width="16" height="16"/><rect x="122" y="202" width="16" height="16"/><rect x="202" y="202" width="16" height="16"/><rect x="22" y="222" width="16" height="16"/><rect x="122" y="222" width="16" height="16"/><rect x="222" y="222" width="16" height="16"/></g><g fill="#1C1815"><rect x="102" y="102" width="16" height="16"/><rect x="122" y="102" width="16" height="16"/><rect x="142" y="102" width="16" height="16"/><rect x="102" y="122" width="16" height="16"/><rect x="122" y="122" width="16" height="16"/><rect x="142" y="122" width="16" height="16"/><rect x="102" y="142" width="16" height="16"/><rect x="122" y="142" width="16" height="16"/><rect x="142" y="142" width="16" height="16"/></g></svg>